<svg width="1130" height="339" viewBox="0 0 1130 339" fill="none" xmlns="http://www.w3.org/2000/svg">
<path d="M112.78 24.0299C52.0286 24.4037 0.910596 63.0416 0.910596 128.26C0.910596 128.26 -9.705 200.822 112.114 337.424C233.933 200.822 223.318 128.26 223.318 128.26C223.318 63.0416 173.532 24.4037 112.78 24.0299Z" fill="#56B5B5"/>
<path d="M63.3591 72.4751C58.032 78.9485 56.2563 83.3275 54.8358 94.5608L53.5928 104.652L45.7797 103.319C38.8544 102.177 37.9666 102.557 37.9666 105.794C37.9666 107.888 39.5647 111.125 41.518 113.029L45.0694 116.456L41.518 120.645C38.8544 123.691 37.9666 127.309 37.9666 136.257C37.9666 150.156 40.6301 165.768 44.1815 173.574C45.6021 176.811 46.8451 181.571 46.8451 184.427C46.8451 187.283 48.4432 191.091 50.3965 192.995C53.4152 195.85 54.6582 196.041 58.3872 194.327C61.9386 192.614 62.8264 190.71 62.8264 185.379V178.715H162.266V185.379C162.266 190.9 162.976 192.233 167.06 193.185C173.453 195.089 177.182 191.852 178.425 183.475C178.958 179.667 180.378 175.859 181.266 175.097C182.864 174.145 185.173 163.483 188.369 141.017C189.434 134.163 186.238 123.881 182.154 120.264C180.023 118.36 180.201 117.218 183.397 112.839C185.35 109.983 187.126 106.556 187.126 105.223C187.126 101.986 181.266 101.796 176.116 104.652C171.5 107.317 170.079 105.223 168.658 92.4664C167.238 81.614 164.752 76.8541 157.472 71.9039C153.032 68.6672 148.415 68.2864 109.705 68.2864C67.6208 68.2864 66.9106 68.2864 63.3591 72.4751ZM149.481 76.0926C158.715 79.5196 163.331 90.3721 165.285 113.41C165.995 121.787 165.64 123.501 162.443 125.214C159.958 126.737 142.556 127.118 108.64 126.928L58.3872 126.357L58.5647 121.597C59.4526 106.365 62.8264 86.5642 65.3124 82.5659C66.9106 80.0908 70.8171 77.0445 74.0134 76.0926C82.0041 73.6174 142.733 73.6174 149.481 76.0926Z" fill="white"/>
<path d="M934.881 98.9883C996.847 98.9883 1058.81 98.9883 1122.66 98.9883V145.532C1085.99 190.043 1012.1 280.85 1012.1 280.85C1070.3 281.716 1070.3 281.716 1129.68 282.599C1129.68 298.757 1129.68 314.914 1129.68 331.562C1063.08 331.562 1003.17 331.766 934.552 331.766V276.041C934.552 276.041 1008.17 191.056 1041.93 146.202C1006.6 146.202 971.278 146.202 934.881 146.202C934.881 130.622 934.881 115.041 934.881 98.9883Z" fill="#626161"/>
<path d="M382.52 92.9772C384.606 92.9905 386.691 93.0037 388.841 93.0173C418.687 93.574 445.657 101.791 467.62 122.725C483.88 140.134 488.703 153.752 490.886 177.679C470.617 177.679 450.347 177.679 429.464 177.679C427.147 171.908 424.831 166.137 422.444 160.192C407.749 136.135 368.619 137.681 348.518 153.088C334.29 166.288 328.165 185.165 327.301 204.025C326.563 229.252 328.805 253.764 345.995 273.528C359.41 284.939 370.827 288.697 388.299 288.398C402.677 287.087 416.011 282.757 425.954 272.107C430.803 265.305 433.061 259.43 434.729 251.123C454.998 251.123 475.267 251.123 496.151 251.123C493.147 278.061 482.531 296.784 461.971 314.335C423.947 342.135 370.619 344.521 327.891 327.176C314.047 320.777 303.174 312.723 292.58 301.834C291.576 300.849 290.571 299.864 289.536 298.849C265.994 274 261.609 237.85 262.212 205.37C263.435 174.374 274.737 144.629 296.734 122.308C309.588 110.945 323.571 103.855 339.963 98.9883C341.311 98.5497 342.658 98.1111 344.047 97.6593C356.989 93.7163 369.031 92.8572 382.52 92.9772Z" fill="#626161"/>
<path d="M719.026 41.2821C719.026 60.3251 719.026 79.3681 719.026 98.9883C744.507 98.9883 769.988 98.9883 796.242 98.9883C796.242 113.415 796.242 127.841 796.242 142.705C770.76 142.705 745.279 142.705 719.026 142.705C719.185 164.162 719.185 164.162 719.392 185.619C719.487 194.376 719.577 203.133 719.633 211.891C719.679 218.955 719.75 226.018 719.838 233.082C719.868 235.771 719.888 238.46 719.899 241.149C719.916 244.928 719.965 248.707 720.022 252.486C720.051 255.707 720.051 255.707 720.081 258.993C721.05 267.468 723.068 274.895 729.884 280.522C741.616 285.458 752.413 286.629 764.982 286.424C766.426 286.413 767.87 286.402 769.358 286.39C781.311 286.241 793.112 285.464 805.017 284.348C805.017 298.774 805.017 313.201 805.017 328.064C770.03 341.138 729.458 341.532 694.539 327.771C678.196 320.238 666.267 309.623 659.594 292.746C654.809 277.293 655.179 262 655.334 246.02C655.344 243.029 655.352 240.038 655.357 237.046C655.377 229.235 655.428 221.425 655.487 213.614C655.541 205.619 655.565 197.624 655.591 189.629C655.648 173.987 655.74 158.346 655.848 142.705C643.687 142.705 631.525 142.705 618.995 142.705C616.533 120.627 616.533 120.627 620.836 113.37C626.425 106.536 633.211 101.027 640.054 95.4909C648.617 88.489 656.353 80.9705 663.876 72.8743C666.545 70.0452 669.219 67.22 671.894 64.396C673.705 62.4621 675.496 60.5099 677.267 58.5404C679.879 55.6487 682.561 52.8389 685.264 50.0322C686.82 48.3519 688.375 46.6716 689.978 44.9403C696.212 41.2821 696.212 41.2821 719.026 41.2821Z" fill="#626161"/>
<path d="M834.85 98.9883C855.699 98.9883 876.547 98.9883 898.027 98.9883C898.027 175.737 898.027 252.487 898.027 331.562C877.179 331.562 856.33 331.562 834.85 331.562C834.85 254.812 834.85 178.063 834.85 98.9883Z" fill="#616060"/>
<path d="M527.739 98.9883C548.588 98.9883 569.436 98.9883 590.916 98.9883C590.916 175.737 590.916 252.487 590.916 331.562C570.068 331.562 549.219 331.562 527.739 331.562C527.739 254.812 527.739 178.063 527.739 98.9883Z" fill="#616060"/>
<path d="M899.782 25.544C904.96 77.8989 828.982 86.7212 830.799 30.9267C836.555 -7.69562 887.74 -10.453 899.782 25.544Z" fill="#636262"/>
<path d="M592.671 25.544C601.503 78.343 520.174 86.2329 523.379 29.7176C531.052 -7.95169 580.678 -7.47644 592.671 25.544Z" fill="#636262"/>
</svg>
